<svg width="16" height="16" viewBox="0 0 16 16" fill="none" xmlns="http://www.w3.org/2000/svg">
<path d="M8 0C3.582 0 0 3.58 0 8C0 12.418 3.582 16 8 16C12.418 16 16 12.418 16 8C16 3.58 12.418 0 8 0ZM8.66667 12C8.66667 12.368 8.368 12.6667 8 12.6667C7.632 12.6667 7.33333 12.368 7.33333 12V7.33333C7.33333 6.96533 7.632 6.66667 8 6.66667C8.368 6.66667 8.66667 6.96533 8.66667 7.33333V12ZM8 5.33333C7.448 5.33333 7 4.88533 7 4.33333C7 3.78133 7.448 3.33333 8 3.33333C8.552 3.33333 9 3.78133 9 4.33333C9 4.88533 8.552 5.33333 8 5.33333Z" fill="#2A937A"/>
</svg>
