<svg width="20" height="20" viewBox="0 0 20 20" fill="none" xmlns="http://www.w3.org/2000/svg">
<g clip-path="url(#clip0_1872_14092)">
<path d="M9.99992 18.0794C10.9204 18.0794 11.6666 17.3332 11.6666 16.4128C11.6666 15.4923 10.9204 14.7461 9.99992 14.7461C9.07944 14.7461 8.33325 15.4923 8.33325 16.4128C8.33325 17.3332 9.07944 18.0794 9.99992 18.0794Z" fill="#F43C3C"/>
<path d="M16.211 9.83776L16.2721 9.74332C16.3325 9.64983 16.3736 9.54527 16.3931 9.43574C16.4126 9.32621 16.4102 9.21388 16.3859 9.10531C16.3616 8.99674 16.3159 8.89408 16.2516 8.80332C16.1872 8.71256 16.1054 8.63551 16.011 8.57665C14.2047 7.46075 12.1232 6.87015 9.99992 6.87109C9.68881 6.87109 9.38325 6.87109 9.08325 6.90998L10.8666 8.69332C12.3636 8.82562 13.8093 9.30496 15.0888 10.0933C15.2725 10.2046 15.4922 10.2402 15.7016 10.1925C15.911 10.1448 16.0937 10.0176 16.211 9.83776Z" fill="#F43C3C"/>
<path d="M18.2 5.21159C16.3484 4.05681 14.2739 3.30598 12.1122 3.00824C9.95051 2.7105 7.75028 2.87256 5.65552 3.48381L7.11663 4.94492C10.6074 4.19553 14.2528 4.83731 17.2777 6.73381C17.4604 6.84172 17.6775 6.87537 17.8843 6.82782C18.0911 6.78026 18.2717 6.65513 18.3889 6.47826L18.45 6.38381C18.5117 6.29079 18.5542 6.18639 18.575 6.07672C18.5958 5.96706 18.5946 5.85434 18.5713 5.74517C18.548 5.636 18.5032 5.53257 18.4394 5.44095C18.3757 5.34933 18.2942 5.27135 18.2 5.21159Z" fill="#F43C3C"/>
<path d="M1.66662 2.6388L3.38884 4.36102C2.83091 4.61861 2.28917 4.90989 1.76662 5.23325C1.67098 5.29166 1.58802 5.36863 1.52263 5.45963C1.45724 5.55063 1.41075 5.65381 1.38589 5.76308C1.36103 5.87235 1.35832 5.98548 1.37791 6.09582C1.3975 6.20615 1.439 6.31144 1.49995 6.40547L1.56106 6.49991C1.67823 6.67679 1.85884 6.80192 2.06561 6.84947C2.27237 6.89703 2.4895 6.86338 2.67217 6.75547C3.32111 6.34726 4.00313 5.99417 4.71106 5.69991L6.4555 7.44436C5.57273 7.72816 4.72767 8.11805 3.93884 8.60547C3.84487 8.66478 3.76363 8.74216 3.69982 8.83313C3.63601 8.92409 3.59091 9.02683 3.56713 9.13537C3.54336 9.24391 3.54138 9.3561 3.56132 9.46541C3.58126 9.57472 3.62271 9.67898 3.68328 9.77214L3.74439 9.86658C3.86156 10.0435 4.04217 10.1686 4.24894 10.2161C4.4557 10.2637 4.67283 10.23 4.8555 10.1221C5.79793 9.53919 6.83329 9.12204 7.91662 8.8888L9.91662 10.8888C8.58594 10.9024 7.28326 11.2726 6.14439 11.961C6.05062 12.0198 5.96949 12.0967 5.90574 12.1872C5.842 12.2776 5.79691 12.3799 5.77312 12.488C5.74933 12.5961 5.74731 12.7078 5.76718 12.8167C5.78705 12.9256 5.82841 13.0294 5.88884 13.1221L5.94439 13.211C6.06664 13.3917 6.25407 13.5181 6.46741 13.5636C6.68075 13.6092 6.90344 13.5704 7.08884 13.4555C7.83653 13.0113 8.67643 12.7452 9.54348 12.6778C10.4105 12.6103 11.2815 12.7434 12.0888 13.0666L16.1111 17.0832L16.8944 16.2999L2.44995 1.85547L1.66662 2.6388Z" fill="#F43C3C"/>
</g>
<defs>
<clipPath id="clip0_1872_14092">
<rect width="20" height="20" fill="white"/>
</clipPath>
</defs>
</svg>
