<svg width="22" height="22" viewBox="0 0 22 22" fill="none" xmlns="http://www.w3.org/2000/svg">
<path d="M11 1C5.47656 1 1 5.47656 1 11C1 16.5234 5.47656 21 11 21C16.5234 21 21 16.5234 21 11C21 5.47656 16.5234 1 11 1ZM3.5 11C3.5 6.85547 6.85938 3.5 11 3.5C12.6445 3.5 14.1641 4.03516 15.3984 4.93359L4.93359 15.3984C4.03516 14.1641 3.5 12.6445 3.5 11ZM11 18.5C9.35547 18.5 7.83594 17.9648 6.60156 17.0664L17.0664 6.60156C17.9648 7.83984 18.5 9.35547 18.5 11C18.5 15.1445 15.1406 18.5 11 18.5Z" fill="#F43C3C"/>
</svg>
